<svg width="56.000000" height="56.000000" viewBox="0 0 56 56" fill="none" xmlns="http://www.w3.org/2000/svg" xmlns:xlink="http://www.w3.org/1999/xlink">
	<desc>
			Created with Pixso.
	</desc>
	<defs>
		<filter id="filter_39_3508_dd" x="0.000000" y="0.000000" width="56.000000" height="56.000000" filterUnits="userSpaceOnUse" color-interpolation-filters="sRGB">
			<feFlood flood-opacity="0" result="BackgroundImageFix"/>
			<feColorMatrix in="SourceAlpha" type="matrix" values="0 0 0 0 0 0 0 0 0 0 0 0 0 0 0 0 0 0 127 0" result="hardAlpha"/>
			<feOffset dx="-1" dy="-1"/>
			<feGaussianBlur stdDeviation="2.66667"/>
			<feComposite in2="hardAlpha" operator="out" k2="-1" k3="1"/>
			<feColorMatrix type="matrix" values="0 0 0 0 1 0 0 0 0 1 0 0 0 0 1 0 0 0 0.078 0"/>
			<feBlend mode="normal" in2="BackgroundImageFix" result="effect_dropShadow_1"/>
			<feBlend mode="normal" in="SourceGraphic" in2="effect_dropShadow_1" result="shape"/>
		</filter>
	</defs>
	<g filter="url(#filter_39_3508_dd)">
		<rect id="Rectangle 125" x="9.000000" y="9.000000" rx="20.000000" width="40.000000" height="40.000000" fill="#FCD8CB" fill-opacity="1.000000"/>
	</g>
	<path id="Icon awesome-facebook-f" d="M32.65 30.25L33.2 26.63L29.73 26.63L29.73 24.28C29.71 24.01 29.74 23.74 29.84 23.48C29.93 23.23 30.08 23 30.28 22.81C30.48 22.62 30.71 22.48 30.97 22.4C31.23 22.31 31.5 22.29 31.77 22.32L33.35 22.32L33.35 19.25C32.42 19.1 31.49 19.02 30.55 19.01C29.9 18.96 29.25 19.05 28.65 19.28C28.04 19.51 27.49 19.87 27.04 20.34C26.59 20.8 26.25 21.36 26.04 21.97C25.83 22.58 25.75 23.23 25.82 23.88L25.82 26.63L22.64 26.63L22.64 30.25L25.82 30.25L25.82 39L29.73 39L29.73 30.25L32.65 30.25Z" fill="#446381" fill-opacity="1.000000" fill-rule="nonzero"/>
</svg>
