<svg width="56.000000" height="56.000000" viewBox="0 0 56 56" fill="none" xmlns="http://www.w3.org/2000/svg" xmlns:xlink="http://www.w3.org/1999/xlink">
	<desc>
			Created with Pixso.
	</desc>
	<defs>
		<filter id="filter_39_3504_dd" x="0.000000" y="0.000000" width="56.000000" height="56.000000" filterUnits="userSpaceOnUse" color-interpolation-filters="sRGB">
			<feFlood flood-opacity="0" result="BackgroundImageFix"/>
			<feColorMatrix in="SourceAlpha" type="matrix" values="0 0 0 0 0 0 0 0 0 0 0 0 0 0 0 0 0 0 127 0" result="hardAlpha"/>
			<feOffset dx="-1" dy="-1"/>
			<feGaussianBlur stdDeviation="2.66667"/>
			<feComposite in2="hardAlpha" operator="out" k2="-1" k3="1"/>
			<feColorMatrix type="matrix" values="0 0 0 0 1 0 0 0 0 1 0 0 0 0 1 0 0 0 0.078 0"/>
			<feBlend mode="normal" in2="BackgroundImageFix" result="effect_dropShadow_1"/>
			<feBlend mode="normal" in="SourceGraphic" in2="effect_dropShadow_1" result="shape"/>
		</filter>
	</defs>
	<g filter="url(#filter_39_3504_dd)">
		<rect id="Rectangle 123" x="9.000000" y="9.000000" rx="20.000000" width="40.000000" height="40.000000" fill="#FCD8CB" fill-opacity="1.000000"/>
	</g>
	<path id="Icon awesome-instagram" d="M29.01 23.87C27.99 23.87 27 24.17 26.16 24.73C25.31 25.29 24.65 26.09 24.27 27.03C23.88 27.97 23.77 29 23.97 29.99C24.17 30.99 24.66 31.9 25.37 32.62C26.09 33.34 27 33.83 28 34.03C28.99 34.23 30.02 34.12 30.96 33.74C31.9 33.35 32.7 32.69 33.26 31.85C33.83 31 34.13 30.01 34.13 29C34.13 28.33 34 27.66 33.74 27.04C33.48 26.42 33.11 25.85 32.63 25.37C32.15 24.9 31.59 24.52 30.97 24.26C30.35 24 29.68 23.87 29.01 23.87ZM29.01 32.33C28.35 32.33 27.7 32.14 27.15 31.77C26.61 31.41 26.18 30.89 25.92 30.28C25.67 29.67 25.6 29 25.73 28.35C25.86 27.71 26.18 27.11 26.64 26.65C27.11 26.18 27.7 25.86 28.35 25.73C28.99 25.6 29.66 25.67 30.27 25.92C30.88 26.17 31.4 26.6 31.77 27.15C32.14 27.69 32.33 28.34 32.33 29C32.33 29.88 31.98 30.73 31.36 31.35C30.73 31.97 29.89 32.33 29.01 32.33ZM35.53 23.65C35.53 23.89 35.46 24.12 35.33 24.32C35.2 24.51 35.01 24.67 34.79 24.76C34.58 24.85 34.34 24.87 34.1 24.83C33.87 24.78 33.66 24.67 33.49 24.5C33.33 24.33 33.21 24.12 33.17 23.89C33.12 23.66 33.14 23.42 33.23 23.2C33.32 22.98 33.48 22.79 33.67 22.66C33.87 22.53 34.1 22.46 34.34 22.46C34.49 22.46 34.65 22.49 34.79 22.55C34.94 22.61 35.07 22.7 35.18 22.81C35.29 22.92 35.38 23.05 35.44 23.2C35.5 23.34 35.53 23.5 35.53 23.65ZM38.93 24.87C38.96 23.31 38.38 21.81 37.31 20.68C36.18 19.62 34.68 19.04 33.12 19.06C31.47 18.97 26.52 18.97 24.87 19.06C23.32 19.03 21.81 19.61 20.68 20.68C19.61 21.81 19.03 23.31 19.07 24.87C18.97 26.52 18.97 31.47 19.07 33.12C19.03 34.67 19.61 36.18 20.68 37.31C21.81 38.37 23.32 38.95 24.87 38.93C26.52 39.02 31.47 39.02 33.12 38.93C34.67 38.96 36.18 38.38 37.31 37.31C38.37 36.18 38.95 34.67 38.92 33.12C39.02 31.47 39.02 26.53 38.92 24.87L38.93 24.87ZM36.79 34.9C36.62 35.33 36.37 35.72 36.04 36.05C35.72 36.38 35.32 36.63 34.89 36.8C32.96 37.2 30.98 37.33 29.01 37.2C27.03 37.32 25.05 37.19 23.11 36.79C22.68 36.62 22.29 36.37 21.97 36.04C21.64 35.71 21.38 35.32 21.21 34.89C20.81 32.96 20.67 30.97 20.8 29C20.67 27.02 20.81 25.04 21.2 23.1C21.37 22.67 21.63 22.28 21.96 21.96C22.28 21.63 22.67 21.37 23.1 21.2C25.04 20.8 27.03 20.67 29.01 20.8C30.98 20.67 32.96 20.81 34.9 21.2C35.33 21.37 35.72 21.63 36.05 21.95C36.38 22.28 36.63 22.67 36.8 23.1C37.2 25.04 37.34 27.02 37.2 29C37.33 30.97 37.2 32.96 36.79 34.9Z" fill="#446381" fill-opacity="1.000000" fill-rule="nonzero"/>
</svg>
